<?xml version="1.0" encoding="iso-8859-1"?>
<!-- Uploaded to: SVG Repo, www.svgrepo.com, Generator: SVG Repo Mixer Tools -->
<svg version="1.1" id="Layer_1" xmlns="http://www.w3.org/2000/svg" xmlns:xlink="http://www.w3.org/1999/xlink" 
	 viewBox="0 0 511.996 511.996" xml:space="preserve">
<rect x="16.621" y="27.671" style="fill:#B7E4F8;" width="478.753" height="484.325"/>
<rect x="255.998" y="27.671" style="fill:#93D6F4;" width="239.377" height="484.325"/>
<rect x="16.621" y="27.671" style="fill:#FF318F;" width="478.753" height="105.312"/>
<rect x="255.998" y="27.671" style="fill:#BF256B;" width="239.377" height="105.312"/>
<rect x="109.074" style="fill:#B7E4F8;" width="39.896" height="95.232"/>
<rect x="363.026" style="fill:#93D6F4;" width="39.896" height="95.232"/>
<path style="fill:#FF318F;" d="M359.438,336.598c-5.839-5.838-14.892-10.457-25.287-14.105c10.394-3.647,19.448-8.268,25.287-14.105
	c24.629-24.629,24.629-64.704,0-89.335c-11.932-11.932-27.794-18.501-44.668-18.501c-16.873,0-32.736,6.57-44.668,18.501
	c-5.838,5.839-10.457,14.892-14.105,25.289c-3.648-10.396-8.268-19.449-14.105-25.289c-11.932-11.932-27.794-18.501-44.668-18.501
	s-32.736,6.57-44.668,18.501c-24.629,24.631-24.629,64.706,0,89.335c5.838,5.838,14.892,10.458,25.287,14.105
	c-10.394,3.648-19.449,8.268-25.287,14.105c-11.932,11.932-18.501,27.796-18.501,44.668c0,16.873,6.57,32.736,18.501,44.668
	s27.794,18.501,44.668,18.501s32.736-6.57,44.668-18.501c5.838-5.838,10.457-14.892,14.105-25.287
	c3.648,10.394,8.268,19.449,14.105,25.287c11.932,11.932,27.794,18.501,44.668,18.501c16.873,0,32.736-6.57,44.668-18.501
	c11.932-11.932,18.501-27.793,18.501-44.668C377.939,364.395,371.37,348.53,359.438,336.598z"/>
<path style="fill:#BF256B;" d="M359.438,336.598c-5.839-5.838-14.892-10.457-25.287-14.105c10.394-3.647,19.448-8.268,25.287-14.105
	c24.629-24.629,24.629-64.704,0-89.335c-11.932-11.932-27.794-18.501-44.668-18.501c-16.873,0-32.736,6.57-44.668,18.501
	c-5.838,5.839-10.457,14.892-14.105,25.289v156.305c3.648,10.394,8.268,19.449,14.105,25.288
	c11.932,11.932,27.794,18.501,44.668,18.501c16.873,0,32.736-6.57,44.668-18.501s18.501-27.793,18.501-44.668
	C377.939,364.395,371.37,348.53,359.438,336.598z"/>
<circle style="fill:#FFDB2D;" cx="255.998" cy="324.741" r="39.896"/>
<path style="fill:#FFAE33;" d="M255.998,284.85c22.033,0,39.896,17.863,39.896,39.896c0,22.035-17.863,39.896-39.896,39.896"/>
</svg>